<?xml version="1.0" encoding="UTF-8"?>
<svg width="743px" height="295px" viewBox="0 0 743 295" version="1.1" xmlns="http://www.w3.org/2000/svg" xmlns:xlink="http://www.w3.org/1999/xlink">
    <title>Group 7</title>
    <defs>
        <path d="M77.0958815,4.15413788 C73.297806,6.8857571 70.2850979,10.3849453 67.5818983,14.1604904 L67.5818983,14.1604904 C62.590576,21.1404963 58.6821331,28.7179442 55.6734239,36.7203105 L55.6734239,36.7203105 C52.3008224,45.6883282 48.8378476,54.6499562 46.06027,63.8128614 L46.06027,63.8128614 C37.3604457,92.5148312 28.6542232,121.223989 20.5398256,150.095288 L20.5398256,150.095288 C12.7581295,177.779689 5.71141572,205.671758 1.67181169,234.209192 L1.67181169,234.209192 C0.37539551,243.365707 -0.36198618,252.576535 0.179453521,261.83928 L0.179453521,261.83928 C0.575336315,268.620405 1.71419914,275.264151 4.84527215,281.38793 L4.84527215,281.38793 C9.99894635,291.465368 20.3782734,297.738508 34.0246333,293.819992 L34.0246333,293.819992 C42.7556484,291.313612 49.3592933,285.767306 54.7121085,278.638739 L54.7121085,278.638739 C59.0228323,272.897546 61.9051789,266.411947 64.1925017,259.652388 L64.1925017,259.652388 C68.8447244,245.908829 70.7625566,231.682843 71.5775153,217.279542 L71.5775153,217.279542 C71.9606019,210.539951 72.0981612,203.78758 72.3812773,197.043995 L72.3812773,197.043995 C72.4148674,196.23649 72.6587952,195.438569 72.8947253,194.163015 L72.8947253,194.163015 C74.8453478,195.150232 76.3992878,195.910612 77.925236,196.714124 L77.925236,196.714124 C86.180392,201.064746 94.9577933,202.889819 104.219051,201.724488 L104.219051,201.724488 C111.31535,200.83152 118.145328,198.784403 124.45466,195.381061 L124.45466,195.381061 C131.790888,191.425805 138.727235,186.915438 145.164529,181.728556 L145.164529,181.728556 C145.252503,182.938616 145.358072,184.150273 145.50043,185.365124 L145.50043,185.365124 C146.446549,193.400238 148.603511,201.028005 152.991812,207.900184 L152.991812,207.900184 C157.379313,214.771564 163.419924,219.535125 171.434352,221.395342 L171.434352,221.395342 C176.682398,222.613388 182.051208,222.504762 187.316849,221.406524 L187.316849,221.406524 C197.427456,219.300301 206.370408,214.720446 214.333651,208.194113 L214.333651,208.194113 C224.173937,200.130245 231.131078,189.959356 236.142394,178.37154 L236.142394,178.37154 C236.982945,176.429055 237.794705,174.472992 238.668846,172.401914 L238.668846,172.401914 C242.076637,171.765335 244.872609,171.286103 247.646988,170.719013 L247.646988,170.719013 C255.289525,169.160712 262.796103,167.171103 270.017165,164.262168 L270.017165,164.262168 C269.558101,171.471406 269.96678,178.67106 272.039766,185.754101 L272.039766,185.754101 C273.150637,189.548815 274.737368,193.094329 277.166248,196.214924 L277.166248,196.214924 C281.761688,202.12225 287.777507,204.90978 295.311276,204.30515 L295.311276,204.30515 C302.945016,203.691733 309.160776,200.088712 314.700736,195.121478 L314.700736,195.121478 C318.564392,191.655836 321.642681,187.516874 324.562616,183.250116 L324.562616,183.250116 C325.316793,182.147085 325.673487,180.589583 327.498547,180.135112 L327.498547,180.135112 C327.923221,182.460183 328.355093,184.687811 328.731782,186.921029 L328.731782,186.921029 C329.383589,190.8052 330.570438,194.52164 332.330716,198.030413 L332.330716,198.030413 C338.012234,209.360243 348.130039,213.46486 359.169171,212.254002 L359.169171,212.254002 C366.203088,211.482439 372.672373,208.96887 378.11876,204.397002 L378.11876,204.397002 C380.99071,201.986468 383.75949,199.417788 386.36032,196.71013 L386.36032,196.71013 C388.830789,197.584727 391.618763,197.684567 394.36515,196.819555 L394.36515,196.819555 C397.357065,195.877066 399.842729,194.171801 401.805348,191.845132 L401.805348,191.845132 C404.207037,189.000095 406.530349,186.049627 408.547352,182.927434 L408.547352,182.927434 C412.017524,177.555249 415.224575,172.01134 418.545192,166.541712 L418.545192,166.541712 C427.616906,151.592886 438.093004,137.711148 450.127041,125.005125 L450.127041,125.005125 C457.500858,117.217615 465.555274,110.265564 474.702166,104.626607 L474.702166,104.626607 C476.34248,103.615429 478.056373,102.726454 480.266918,101.48205 L480.266918,101.48205 C480.122161,102.952492 480.206936,103.847057 479.928618,104.610633 L479.928618,104.610633 C478.777759,107.780749 477.642895,110.965242 476.2745,114.044304 L476.2745,114.044304 C473.60569,120.049872 470.794523,125.991544 468.023343,131.953183 L468.023343,131.953183 C463.518277,141.644041 459.800977,151.611256 457.355301,162.028949 L457.355301,162.028949 C455.070378,171.766133 453.74597,181.598365 454.645704,191.627082 L454.645704,191.627082 C455.16395,197.399425 456.857049,202.827519 460.33362,207.486448 L460.33362,207.486448 C465.686435,214.661341 472.877906,217.59264 481.817659,216.16453 L481.817659,216.16453 C487.228857,215.298719 492.04743,213.030357 496.334161,209.809921 L496.334161,209.809921 C500.732059,206.504023 505.093968,203.058349 508.96962,199.175776 L508.96962,199.175776 C517.734226,190.395457 526.190122,181.337184 534.430083,172.08642 L534.430083,172.08642 C534.0342,177.170267 534.230142,182.275679 535.314621,187.38189 L535.314621,187.38189 C536.590243,193.371484 538.738407,198.991272 542.817999,203.658986 L542.817999,203.658986 C548.018859,209.609443 554.46895,212.023172 562.401801,210.47206 L562.401801,210.47206 C569.098219,209.160563 574.721354,205.874633 579.6327,201.397812 L579.6327,201.397812 C583.302013,198.052777 586.876955,194.514451 589.955244,190.635073 L589.955244,190.635073 C595.365642,183.820402 600.357764,176.674262 605.536231,169.678282 L605.536231,169.678282 C606.439963,168.454644 607.02619,166.947461 608.811261,165.723025 L608.811261,165.723025 C609.318311,168.626369 608.832855,171.024922 608.564134,173.393923 L608.564134,173.393923 C607.710787,180.902681 608.312209,188.306008 610.203649,195.590326 L610.203649,195.590326 C614.504776,212.16135 634.768376,229.565439 658.093471,220.85381 L658.093471,220.85381 C662.566546,219.185286 666.955647,217.148552 671.107218,214.790734 L671.107218,214.790734 C682.196735,208.493632 691.646737,200.138232 700.015459,190.579961 L700.015459,190.579961 C712.67731,176.12075 724.410637,160.924321 735.571332,145.284603 L735.571332,145.284603 C737.426783,142.684772 739.111084,139.95475 740.738603,137.203163 L740.738603,137.203163 C741.541565,135.845341 742.224563,134.35573 742.633242,132.835767 L742.633242,132.835767 C743.807294,128.441215 742.099,124.088995 738.419289,121.651304 L738.419289,121.651304 C734.520444,119.067448 729.709868,119.291888 726.057349,122.386126 L726.057349,122.386126 C724.853705,123.40609 723.861199,124.701612 722.868693,125.946815 L722.868693,125.946815 C713.661019,137.476325 704.580508,149.111266 695.245671,160.535345 L695.245671,160.535345 C688.721203,168.521737 681.920816,176.285286 674.128723,183.109542 L674.128723,183.109542 C669.025434,187.577576 663.586244,191.54721 657.492049,194.583141 L657.492049,194.583141 C654.459347,196.095116 651.365063,197.495271 647.973267,197.868273 L647.973267,197.868273 C646.435322,198.037601 644.707834,198.012841 643.289853,197.481693 L643.289853,197.481693 C638.920747,195.845916 635.738489,192.940176 634.512452,188.222142 L634.512452,188.222142 C633.421575,184.029666 633.233631,179.770896 633.758275,175.521711 L633.758275,175.521711 C634.454869,169.884351 635.249034,164.250187 636.263933,158.664745 L636.263933,158.664745 C638.549657,146.067347 642.249361,133.814997 645.728331,121.517119 L645.728331,121.517119 C653.56841,93.7991714 664.126884,67.0316992 674.463024,40.1867513 L674.463024,40.1867513 C676.185714,35.7131258 677.99078,31.271449 679.733464,26.8066094 L679.733464,26.8066094 C681.077866,23.3609354 681.285004,19.8266035 679.828636,16.4144756 L679.828636,16.4144756 C676.339269,8.23479361 665.321731,6.75876077 659.562636,13.7235911 L659.562636,13.7235911 C658.228631,15.3370036 657.224928,17.3018525 656.404371,19.2443373 L656.404371,19.2443373 C651.765744,30.1987693 647.229487,41.193936 642.65804,52.1739271 L642.65804,52.1739271 C642.113402,53.4854238 641.639142,54.8328629 641.015327,56.1044236 L641.015327,56.1044236 C635.628122,67.1107724 630.23052,78.1163225 624.775335,89.0923199 L624.775335,89.0923199 C624.345862,89.9541378 624.197106,91.1945485 622.580785,91.4812887 L622.580785,91.4812887 C621.941774,90.9277764 621.154007,90.2496639 620.368639,89.5715514 L620.368639,89.5715514 C613.010018,83.209754 604.546124,81.2057678 595.022543,82.9166241 L595.022543,82.9166241 C585.61093,84.6091098 577.694074,89.0947161 570.709742,95.4269609 L570.709742,95.4269609 C565.27535,100.354259 560.709502,106.025164 556.657102,112.115397 L556.657102,112.115397 C555.507842,113.843026 554.406568,115.589825 553.340484,117.351799 L553.340484,117.351799 C553.237314,117.477997 553.128547,117.593811 553.027776,117.7256 L553.027776,117.7256 C550.754849,120.685653 548.648273,123.783884 546.232988,126.622532 L546.232988,126.622532 C529.969803,145.727093 512.937246,164.131977 495.273675,181.953795 L495.273675,181.953795 C492.400926,184.852347 489.289847,187.540036 486.129183,190.129484 L486.129183,190.129484 C483.957026,191.90903 481.700094,193.718927 478.630603,194.182983 L478.630603,194.182983 C476.774352,190.844337 477.197427,187.305213 477.59171,183.80283 L477.59171,183.80283 C479.053677,170.799683 482.922132,158.461071 488.142986,146.52102 L488.142986,146.52102 C490.348733,141.475511 492.831998,136.552207 494.984961,131.484335 L494.984961,131.484335 C497.481821,125.602567 499.917101,119.68326 502.074062,113.670503 L502.074062,113.670503 C504.060674,108.131386 505.182742,102.390194 504.910022,96.4221649 L504.910022,96.4221649 C504.326195,83.6538418 493.611767,75.3583455 481.043488,77.915844 L481.043488,77.915844 C474.995679,79.1466701 469.682052,81.9573625 464.549971,85.1730055 L464.549971,85.1730055 C454.393778,91.5340041 445.26848,99.1609725 437.044515,107.865413 L437.044515,107.865413 C435.350616,109.659336 433.663916,111.459649 431.972416,113.255968 L431.972416,113.255968 C431.694099,113.046704 431.416581,112.839835 431.135064,112.630571 L431.135064,112.630571 C431.665307,111.164123 432.16356,109.68809 432.726593,108.231226 L432.726593,108.231226 C435.672921,100.612245 438.673632,93.0148293 441.569575,85.3750814 L441.569575,85.3750814 C442.577277,82.7145482 443.318657,79.9701494 443.109119,77.05163 L443.109119,77.05163 C442.80201,72.758515 440.654646,69.685044 436.860569,67.8136452 L436.860569,67.8136452 C432.032399,65.4286701 426.479642,66.8040643 423.103042,71.387913 L423.103042,71.387913 C421.538705,73.5125058 420.291874,75.9246374 419.205796,78.34236 L419.205796,78.34236 C413.374722,91.3015769 407.530053,104.255203 401.901319,117.300681 L401.901319,117.300681 C395.408042,132.357335 389.06272,147.485074 383.729899,162.997795 L383.729899,162.997795 C382.20635,165.382771 380.660408,167.755765 379.080076,170.10959 L379.080076,170.10959 C376.020182,174.66788 372.427645,178.888311 368.879896,183.093567 L368.879896,183.093567 C367.295565,184.972155 365.330546,186.596749 363.32474,188.042431 L363.32474,188.042431 C360.491979,190.082359 357.320118,191.033634 353.725982,189.841945 L353.725982,189.841945 C351.784957,186.679816 351.330691,183.205388 351.179536,179.632718 L351.179536,179.632718 C350.734868,169.092821 352.125656,158.712668 353.863541,148.363665 L353.863541,148.363665 C356.449976,132.946789 359.886558,117.707229 363.411914,102.483644 L363.411914,102.483644 C364.248467,98.8718362 364.91147,95.1466105 365.01384,91.4541322 L365.01384,91.4541322 C365.178591,85.4908957 361.170178,80.7968237 355.511054,79.5763809 L355.511054,79.5763809 C350.407764,78.4781422 344.867805,81.4493772 342.505304,86.6801884 L342.505304,86.6801884 C341.779919,88.2872111 341.333651,90.0260225 340.79701,91.7145147 L340.79701,91.7145147 C339.134302,96.9557092 337.666737,102.268788 335.79769,107.433306 L335.79769,107.433306 C332.895349,115.444458 329.749081,123.369349 326.659595,131.31261 L326.659595,131.31261 C322.343273,142.413208 317.66066,153.356458 311.693626,163.684694 L311.693626,163.684694 C309.301534,167.830845 306.637523,171.839616 303.822357,175.712604 L303.822357,175.712604 C302.383583,177.687837 300.395371,179.286872 298.538321,180.924246 L298.538321,180.924246 C297.948895,181.445011 296.98678,181.544851 296.049458,181.891495 L296.049458,181.891495 C294.75944,178.583999 294.648273,175.401104 294.841815,172.226994 L294.841815,172.226994 C295.110536,167.794902 295.424043,163.355622 295.976679,158.953082 L295.976679,158.953082 C297.345874,148.02341 299.346082,137.198371 301.685389,126.433235 L301.685389,126.433235 C303.797564,116.718415 305.964922,107.011582 307.845965,97.2488391 L307.845965,97.2488391 C308.782488,92.390231 309.738205,87.4557446 308.749698,82.4437824 L308.749698,82.4437824 C307.703607,77.1402878 304.064685,73.4685762 299.313292,72.9142652 L299.313292,72.9142652 C293.697354,72.2593155 289.290659,74.8192102 287.018532,80.176219 L287.018532,80.176219 C286.329136,81.8040084 285.798893,83.5148647 285.351825,85.2289158 L285.351825,85.2289158 C280.90914,102.262399 276.838346,119.374955 273.791248,136.689587 L273.791248,136.689587 C269.985174,139.799799 265.629664,141.942762 260.874272,143.368476 L260.874272,143.368476 C256.461178,144.690356 251.984904,145.804569 247.524624,146.966705 L247.524624,146.966705 C246.72806,147.175969 245.820329,147.602485 244.875808,146.446739 L244.875808,146.446739 C244.934191,145.466711 244.93659,144.24467 245.092544,143.044196 L245.092544,143.044196 C246.764049,130.144883 247.375868,117.242375 245.895506,104.265586 L245.895506,104.265586 C244.373557,90.9094058 239.895683,78.748908 231.744496,68.0101301 L231.744496,68.0101301 C223.830839,57.5812552 213.408325,50.8416637 200.784062,47.5301744 L200.784062,47.5301744 C193.069546,45.5046229 185.317441,45.5229934 177.610923,47.727458 L177.610923,47.727458 C162.649752,52.0085922 151.113968,60.9023291 144.164025,74.7049933 L144.164025,74.7049933 C133.112897,96.6505985 133.705522,118.471603 146.934405,139.564975 L146.934405,139.564975 C147.775756,140.905226 148.629903,142.236691 149.400075,143.447549 L149.400075,143.447549 C149.117759,144.660004 148.851437,145.769425 148.600312,146.847696 L148.600312,146.847696 C147.697379,147.655201 146.908013,148.633632 146.24341,149.802158 L146.24341,149.802158 C143.273089,155.034566 139.057537,159.061708 134.25176,162.491408 L134.25176,162.491408 C130.0634,165.482611 125.763873,168.342025 121.358777,171.004155 L121.358777,171.004155 C116.778533,173.774113 111.75762,175.516918 106.547962,176.836402 L106.547962,176.836402 C98.208031,178.949014 90.7086513,177.505729 83.9322576,172.24217 L83.9322576,172.24217 C83.0917064,171.588818 82.1543839,171.011344 81.4521918,170.227002 L81.4521918,170.227002 C77.9076412,166.254173 74.4038785,162.244603 70.9433031,158.199091 L70.9433031,158.199091 C70.3850683,157.545739 69.9947839,156.681525 69.7372601,155.850059 L69.7372601,155.850059 C68.1193391,150.61765 66.5590011,145.370066 64.8898953,139.827754 L64.8898953,139.827754 C65.1122294,139.50587 65.4769215,138.910026 65.9111929,138.367696 L65.9111929,138.367696 C68.9071059,134.620106 72.0317808,130.969161 74.8981322,127.127322 L74.8981322,127.127322 C82.9981341,116.278321 89.7769272,104.593061 96.2094228,92.7169071 L96.2094228,92.7169071 C104.486172,77.4334177 109.903768,61.1363538 112.687744,44.0054272 L112.687744,44.0054272 C114.040944,35.6843719 113.677851,27.3601217 111.158597,19.2219731 L111.158597,19.2219731 C109.607856,14.210011 107.096599,9.76274319 103.290526,6.11659064 L103.290526,6.11659064 C100.290614,3.24439686 96.8676279,1.11101823 92.6880653,0.337858167 L92.6880653,0.337858167 C91.4572297,0.110223232 90.2559853,0 89.0819329,0 L89.0819329,0 C84.7376191,0 80.7731928,1.5079816 77.0958815,4.15413788 L77.0958815,4.15413788 Z M57.7768012,109.8686 C59.5146866,103.755205 61.2437747,97.638614 62.9936567,91.5276144 L62.9936567,91.5276144 C67.1444278,77.0252722 71.544725,62.5948148 76.9927121,48.5205861 L76.9927121,48.5205861 C78.9737256,43.4039917 81.4521918,38.4734989 83.8546805,33.531824 L83.8546805,33.531824 C84.6800362,31.8321498 85.9596573,30.3489285 87.406429,28.2155499 L87.406429,28.2155499 C88.0030523,29.5845544 88.5173001,30.2882259 88.6060738,31.0430154 L88.6060738,31.0430154 C89.3474543,37.2834075 88.770825,43.4567072 87.3872347,49.5581221 L87.3872347,49.5581221 C84.9799474,60.1603191 81.6249407,70.4645938 76.445674,80.0380406 L76.445674,80.0380406 C71.467148,89.2472714 66.0271586,98.2096981 60.7567189,107.260783 L60.7567189,107.260783 C60.1449001,108.311897 59.3235432,109.244002 58.5997575,110.23042 L58.5997575,110.23042 C58.3254387,110.109814 58.0503202,109.990006 57.7768012,109.8686 L57.7768012,109.8686 Z M161.806002,103.26559 C162.273064,98.2975572 163.33355,93.4565209 165.328959,88.8375286 L165.328959,88.8375286 C168.120933,82.3806836 172.716372,77.574791 178.810568,74.2185734 L178.810568,74.2185734 C184.547269,71.0580421 190.619871,70.5268939 196.842829,72.6666623 L196.842829,72.6666623 C202.51315,74.6163355 207.336522,77.8567388 211.19378,82.4685427 L211.19378,82.4685427 C216.556992,88.8862504 219.953587,96.2264787 221.302787,104.471656 L221.302787,104.471656 C222.771153,113.472421 222.811141,122.503537 221.785045,131.558615 L221.785045,131.558615 C221.12684,137.368498 220.563006,143.185569 218.689161,149.493053 L218.689161,149.493053 C204.67651,148.108873 191.465221,145.477094 179.733495,137.542619 L179.733495,137.542619 C181.045106,135.45317 182.164775,133.846147 183.099698,132.136089 L183.099698,132.136089 C184.583259,129.420445 185.335836,126.544257 184.554467,123.423662 L184.554467,123.423662 C182.832577,116.530716 175.945816,113.13616 169.023865,115.82385 L169.023865,115.82385 C167.568296,116.390142 166.179907,117.122567 164.779522,117.768731 L164.779522,117.768731 C162.583372,113.734401 161.358935,108.006786 161.806002,103.26559 L161.806002,103.26559 Z M558.635716,180.453801 C558.315811,175.457014 558.871646,170.517736 560.016108,165.672706 L560.016108,165.672706 C564.018922,148.692737 571.25518,133.232731 582.144756,119.543484 L582.144756,119.543484 C584.804769,116.202443 587.809479,113.199259 591.350031,110.74799 L591.350031,110.74799 C594.030037,108.893364 596.949973,107.700078 600.137829,107.153754 L600.137829,107.153754 C602.857024,106.684906 605.23392,107.498002 606.473553,109.98122 L606.473553,109.98122 C608.530544,114.104208 609.218341,118.520325 606.859039,122.723984 L606.859039,122.723984 C597.043545,140.205548 586.936937,157.523375 574.382254,173.238173 L574.382254,173.238173 C571.183201,177.241353 567.453106,180.827601 563.85897,184.496118 L563.85897,184.496118 C562.926446,185.448191 561.588442,186.003301 560.458377,186.728538 L560.458377,186.728538 C558.706895,184.714967 558.771676,182.546445 558.635716,180.453801 L558.635716,180.453801 Z M25.5455436,264.993422 C24.6746015,257.520606 25.3839914,250.094116 26.1829549,242.674815 L26.1829549,242.674815 C28.1815632,224.095811 32.5914576,205.980064 36.8669918,187.841952 L36.8669918,187.841952 C38.6584614,180.244536 40.6474725,172.694245 42.5597064,165.125583 L42.5597064,165.125583 C42.7604469,164.334052 43.0435631,163.564886 43.3274791,162.667126 L43.3274791,162.667126 C47.1295534,166.016155 48.0572787,167.258962 48.4083748,170.648725 L48.4083748,170.648725 C48.8490443,174.882735 49.2169354,179.139908 49.2809165,183.39149 L49.2809165,183.39149 C49.4904544,197.072748 49.5080492,210.758001 48.0660761,224.381752 L48.0660761,224.381752 C47.0199858,234.274687 45.5316265,244.116503 41.932692,253.473497 L41.932692,253.473497 C40.662668,256.771408 39.0903335,259.976668 37.3876376,263.077295 L37.3876376,263.077295 C35.8336977,265.907157 33.5655692,268.217052 30.7775946,269.903148 L30.7775946,269.903148 C29.7626951,270.517363 28.5558524,270.816883 27.476172,271.245795 L27.476172,271.245795 C25.9894122,269.221042 25.7894714,267.109229 25.5455436,264.993422 L25.5455436,264.993422 Z M174.123156,193.890652 C172.542823,191.074368 171.619097,188.063197 171.049665,184.90027 L171.049665,184.90027 C169.747651,177.658284 170.114742,170.457033 171.414357,162.861215 L171.414357,162.861215 C177.929229,165.272547 183.940249,167.862793 190.172004,169.707036 L190.172004,169.707036 C196.406158,171.552875 202.858648,172.657504 209.581458,174.169479 L209.581458,174.169479 C209.259153,175.000147 209.06561,175.806853 208.659331,176.486563 L208.659331,176.486563 C203.787973,184.601549 197.273901,190.952963 188.455712,194.637454 L188.455712,194.637454 C185.870078,195.718121 183.078904,196.400227 180.319721,196.94735 L180.319721,196.94735 C179.878252,197.035209 179.451978,197.078339 179.042499,197.078339 L179.042499,197.078339 C176.949519,197.078339 175.281213,195.952146 174.123156,193.890652 L174.123156,193.890652 Z" id="path-1"></path>
    </defs>
    <g id="Desktop-Designs" stroke="none" stroke-width="1" fill="none" fill-rule="evenodd">
        <g id="Home-Page-R1" transform="translate(-720.000000, -2057.000000)">
            <g id="Eat-Shop-Stay" transform="translate(0.000000, 1067.000000)">
                <g id="Group-7" transform="translate(720.000000, 990.000000)">
                    <mask id="mask-2" fill="white">
                        <use xlink:href="#path-1"></use>
                    </mask>
                    <g id="Clip-2"></g>
                    <polygon id="Fill-1" fill="#fff" mask="url(#mask-2)" points="-74 310 812 310 812 -52 -74 -52"></polygon>
                </g>
            </g>
        </g>
    </g>
</svg>