<?xml version="1.0" encoding="UTF-8"?>
<svg width="18px" height="32px" viewBox="0 0 18 32" version="1.1" xmlns="http://www.w3.org/2000/svg" xmlns:xlink="http://www.w3.org/1999/xlink">
    <title>Facebook</title>
    <g id="Desktop-Designs" stroke="none" stroke-width="1" fill="none" fill-rule="evenodd">
        <g id="Page-Builder:-Singles-&amp;-Posts" transform="translate(-120, -1995)" fill="#000000">
            <g id="Directory::-Eat-+-Drink" transform="translate(0, 928)">
                <g id="Service-Body" transform="translate(120, 734)">
                    <g id="Group" transform="translate(0, 333)">
                        <path d="M17.0694966,9.56 C16.9480356,9.418 16.7733135,9.33533333 16.5888487,9.33333333 L11.691436,9.33333333 L11.691436,7.45333333 C11.691436,7.08 11.7693789,6.65333333 12.3539507,6.65333333 L16.2510961,6.65333333 C16.4251686,6.66533333 16.5940449,6.59066667 16.705763,6.45333333 C16.8239764,6.334 16.8895784,6.17 16.8876298,6 L16.8876298,0.666666667 C16.8876298,0.298666667 16.5966429,0 16.2381056,0 L10.6132258,0 C4.37779326,0 3.89714534,5.46666667 3.89714534,7.13333333 L3.89714534,9.33333333 L0.649524223,9.33333333 C0.290986852,9.33333333 0,9.632 0,10 L0,15.3333333 C0,15.7013333 0.290986852,16 0.649524223,16 L3.89714534,16 L3.89714534,31.3333333 C3.89714534,31.7013333 4.18813219,32 4.54666956,32 L11.0419118,32 C11.4004492,32 11.691436,31.7013333 11.691436,31.3333333 L11.691436,16 L16.0432483,16 C16.3777533,16.002 16.6589973,15.742 16.6927725,15.4 L17.2253824,10.0666667 C17.2494148,9.88266667 17.1922567,9.69666667 17.0694966,9.56" id="Facebook"></path>
                    </g>
                </g>
            </g>
        </g>
    </g>
</svg>