<?xml version="1.0" encoding="UTF-8"?>
<svg width="32px" height="32px" viewBox="0 0 32 32" version="1.1" xmlns="http://www.w3.org/2000/svg" xmlns:xlink="http://www.w3.org/1999/xlink">
    <title>Fill 1</title>
    <g id="Desktop-Designs" stroke="none" stroke-width="1" fill="none" fill-rule="evenodd">
        <g id="Page-Builder:-Unique-Modules-(R4)" transform="translate(-1091, -3177)" fill="#000000">
            <g id="Insta-Feed" transform="translate(-617, 3079)">
                <path d="M1734,106 C1732.895,106 1732,105.105 1732,104 C1732,102.895 1732.895,102 1734,102 C1735.105,102 1736,102.895 1736,104 C1736,105.105 1735.105,106 1734,106 M1724,122 C1719.582,122 1716,118.418 1716,114 C1716,109.582 1719.582,106 1724,106 C1728.418,106 1732,109.582 1732,114 C1732,118.418 1728.418,122 1724,122 M1732,98 L1716,98 C1711.582,98 1708,101.582 1708,106 L1708,122 C1708,126.418 1711.582,130 1716,130 L1732,130 C1736.418,130 1740,126.418 1740,122 L1740,106 C1740,101.582 1736.418,98 1732,98" id="Fill-1"></path>
            </g>
        </g>
    </g>
</svg>