<?xml version="1.0" encoding="UTF-8"?>
<svg width="223px" height="308px" viewBox="0 0 223 308" version="1.1" xmlns="http://www.w3.org/2000/svg" xmlns:xlink="http://www.w3.org/1999/xlink">
    <title>Fill 1</title>
    <g id="Desktop-Designs" stroke="none" stroke-width="1" fill="none" fill-rule="evenodd">
        <g id="Page-Builder:-Archives" transform="translate(-605.000000, -4722.000000)" fill="#F2EDEB">
            <g id="Group-19" transform="translate(119.000000, 4722.387790)">
                <path d="M706.978322,240.98496 C748.089322,209.52796 763.504322,151.06496 741.735322,105.72796 C727.053322,75.1529601 694.379322,39.3009601 657.079322,42.8569601 C633.966322,45.0589601 615.716322,61.8739601 601.925322,79.3909601 C589.435322,95.2609601 578.303322,119.43196 555.546322,121.38896 C538.155322,122.88496 521.820322,116.80896 505.957322,110.56896 C483.195322,101.61596 449.191322,100.15896 444.361322,132.18996 C441.226322,153.00996 459.132322,173.00996 472.614322,186.59896 C488.021322,202.12996 505.621322,215.89496 524.400322,227.13696 C537.015322,234.68896 550.363322,241.26896 563.804322,247.21896 C595.877322,261.41296 632.992322,270.89096 667.660322,260.76496 C681.416322,256.74696 695.581322,249.70596 706.978322,240.98496" id="Fill-1" transform="translate(597.801500, 153.801815) scale(-1, 1) rotate(-90.000000) translate(-597.801500, -153.801815) "></path>
            </g>
        </g>
    </g>
</svg>