<?xml version="1.0" encoding="UTF-8"?>
<svg width="1202px" height="604px" viewBox="0 0 1202 604" version="1.1" xmlns="http://www.w3.org/2000/svg" xmlns:xlink="http://www.w3.org/1999/xlink">
    <title>Group 3</title>
    <defs>
        <polygon id="path-1" points="7.26865127e-15 -2.27373675e-13 1407 -2.27373675e-13 1407 604 7.26865127e-15 604"></polygon>
    </defs>
    <g id="Desktop-Designs" stroke="none" stroke-width="1" fill="none" fill-rule="evenodd">
        <g id="Home-Page-(R4)" transform="translate(0, -1308)">
            <g id="Group-3" transform="translate(498.5, 1610) rotate(180) translate(-498.5, -1610)translate(-205, 1308)">
                <mask id="mask-2" fill="white">
                    <use xlink:href="#path-1"></use>
                </mask>
                <g id="Clip-2"></g>
                <path d="M862.144506,442.276973 C922.127485,467.164931 977.703584,509.581395 1023.01587,548.688139 C1166.93613,672.916495 1392.59024,574.991063 1406.53591,383.161467 C1415.25246,263.173943 1299.45846,167.903605 1204.40676,121.530928 C1078.36919,60.0408798 966.55272,89.5803362 835.273881,84.3880601 C822.924087,83.9001406 810.610747,83.4162872 798.224499,82.9039718 C785.838251,82.4119863 773.387195,81.8915389 760.855131,81.3060356 C678.906612,77.459604 599.870359,56.1253262 519.862001,39.1010035 C449.441036,24.1137446 378.299092,3.08441647 307.594596,0.307341623 C295.811864,-0.15618185 284.037232,-0.111455901 272.274752,0.551301346 C186.838803,11.8913625 105.829985,36.2873347 41.0229314,97.2772654 C-7.58235899,146.06921 -23.7841225,247.719095 53.174254,276.181062 C134.183071,304.64303 223.292771,263.983076 303.560357,294.421117 C319.774272,300.312745 333.90221,306.830535 346.815015,313.592286 C405.56261,337.170993 425.814814,406.284782 474.416054,446.944736 C554.49327,513.940142 655.474811,431.485822 739.586266,421.865677 C781.232899,417.104396 822.648657,425.891012 862.144506,442.276973" id="Fill-1" fill="#F2A53F" mask="url(#mask-2)"></path>
            </g>
        </g>
    </g>
</svg>