<?xml version="1.0" encoding="UTF-8"?>
<svg width="474px" height="278px" viewBox="0 0 474 278" version="1.1" xmlns="http://www.w3.org/2000/svg" xmlns:xlink="http://www.w3.org/1999/xlink">
    <title>Fill 1</title>
    <g id="Desktop-Designs" stroke="none" stroke-width="1" fill="none" fill-rule="evenodd">
        <g id="Home-Page-(R4)" transform="translate(-966.000000, -5801.000000)" fill="#A86600">
            <path d="M1138.40239,5844.36467 C1166.05446,5840.94086 1188.04588,5844.3704 1214.0326,5833.88129 C1249.70777,5819.48335 1282.99187,5801.15176 1322.65662,5801 C1354.81393,5800.88252 1392.89545,5812.34167 1418.22711,5832.57898 C1431.7791,5843.40608 1444.36281,5861.06551 1449.03419,5877.98022 C1459.58969,5916.18631 1443.73066,5954.72275 1446.7768,5993.27065 C1450.90007,6045.49849 1504.42046,6089.44275 1482.92942,6147.49851 C1473.41286,6173.20093 1451.16935,6192.26579 1425.94846,6201.81922 C1397.47326,6212.6043 1369.96251,6204.14122 1341.5847,6211.21034 C1314.86461,6217.86891 1303.65023,6239.79998 1284.71069,6257.98454 C1249.8109,6291.48934 1161.70393,6335.39922 1115.93734,6297.17404 C1095.72396,6280.28988 1096.95388,6253.69762 1092.89936,6230.1969 C1089.00144,6207.61849 1079.19841,6189.0272 1064.07466,6171.88335 C1035.94322,6139.99784 994.880491,6127.71376 976.960785,6085.87955 C931.566614,5979.90195 1035.3359,5857.13377 1138.40239,5844.36467" id="Fill-1" transform="translate(1227.000000, 6056.500000) rotate(180.000000) translate(-1227.000000, -6056.500000) "></path>
        </g>
    </g>
</svg>