<?xml version="1.0" encoding="UTF-8"?><svg id="Layer_2" xmlns="http://www.w3.org/2000/svg" viewBox="0 0 350.76 122.89"><g id="Blobs"><path d="m130.31,27.18c-15.63-3.54-30.91-11.5-43.56-19.1C46.58-16.04-4.28,17.1.29,64.18c2.86,29.45,34.99,47.73,60.04,55.01,33.22,9.66,59.21-2.16,91.37-6.36,3.03-.4,6.04-.79,9.08-1.18,3.03-.4,6.09-.79,9.16-1.17,20.1-2.48,40.22-.6,60.4.2,17.76.7,35.94,2.84,53.26.57,2.89-.38,5.75-.88,8.58-1.53,20.32-6.31,39.02-15.59,52.26-33.08,9.8-13.85,9.53-39.17-10.38-42.86-20.89-3.53-40.89,10.04-61.69,6-4.19-.75-7.9-1.75-11.32-2.85-15.27-3.27-23.07-19.18-36.58-27.01-22.27-12.91-43.42,11.29-63.49,17.12-9.94,2.89-20.38,2.48-30.67.15Z"/></g></svg>