<?xml version="1.0" encoding="UTF-8"?>
<svg width="461px" height="207px" viewBox="0 0 461 207" version="1.1" xmlns="http://www.w3.org/2000/svg" xmlns:xlink="http://www.w3.org/1999/xlink">
    <title>Fill 1</title>
    <g id="Desktop-Designs" stroke="none" stroke-width="1" fill="none" fill-rule="evenodd">
        <g id="Page-Builder:-Unique-Modules" transform="translate(-979.000000, -8137.000000)" fill="#BC5E00">
            <g id="Callouts" transform="translate(0.000000, 8137.000000)">
                <g id="Group-3" transform="translate(940.000000, 0.000000)">
                    <path d="M211.402388,-74.6353332 C239.054464,-78.0591396 261.045876,-74.6296046 287.032602,-85.1187113 C322.707772,-99.5166478 355.991865,-117.848238 395.656619,-118 C427.813927,-118.117483 465.895452,-106.65833 491.227115,-86.4210181 C504.779096,-75.5939226 517.362805,-57.9344908 522.03419,-41.0197798 C532.589686,-2.81369064 516.73066,35.722749 519.7768,74.2706459 C523.90007,126.498492 577.420464,170.442751 555.929421,228.498515 C546.412859,254.200932 524.169353,273.265786 498.948459,282.819217 C470.473256,293.604303 442.962506,285.141219 414.584703,292.210338 C387.864612,298.868907 376.650233,320.799981 357.71069,338.984536 C322.810902,372.489336 234.703927,416.399223 188.937344,378.174039 C168.72396,361.289881 169.953875,334.697618 165.899358,311.196901 C162.001444,288.618492 152.198412,270.027205 137.074661,252.883349 C108.943223,220.997839 67.8804914,208.713764 49.9607848,166.879548 C4.56661375,60.9019519 108.335905,-61.866235 211.402388,-74.6353332" id="Fill-1" transform="translate(300.000000, 137.500000) rotate(180.000000) translate(-300.000000, -137.500000) "></path>
                </g>
            </g>
        </g>
    </g>
</svg>