<?xml version="1.0" encoding="UTF-8"?>
<svg width="691px" height="593px" viewBox="0 0 691 593" version="1.1" xmlns="http://www.w3.org/2000/svg" xmlns:xlink="http://www.w3.org/1999/xlink">
    <title>Fill 1</title>
    <g id="Desktop-Designs" stroke="none" stroke-width="1" fill="none" fill-rule="evenodd">
        <g id="Page-Builder:-Singles-&amp;-Posts-(R4)" transform="translate(-749, -6625)" fill="#C4DBCB">
            <g id="Fill-1" transform="translate(0, 6484)">
                <path d="M1033.4901,213.098617 C1079.10014,207.451304 1115.37333,213.108066 1158.23649,195.807068 C1217.08002,172.058748 1271.97964,141.822159 1337.40369,141.571839 C1390.44477,141.378059 1453.2574,160.279077 1495.04008,193.65901 C1517.39306,211.517495 1538.14895,240.645409 1545.85405,268.544961 C1563.26455,331.56305 1537.10628,395.126029 1542.13066,458.707905 C1548.93168,544.853835 1637.20957,617.336606 1601.7617,713.095252 C1586.06485,755.489468 1549.37584,786.93552 1507.77586,802.693192 C1460.80814,820.482385 1415.43122,806.52316 1368.62415,818.183144 C1324.55136,829.165955 1306.05408,865.339624 1274.81472,895.333689 C1217.25012,950.597354 1071.92425,1023.02343 996.435691,959.973846 C963.095225,932.124688 965.123878,888.262737 958.436254,849.500061 C952.006937,812.258663 935.837568,781.593723 910.89207,753.316213 C864.491366,700.723447 796.761457,680.461784 767.20424,611.459369 C692.329947,436.657243 863.48964,234.160291 1033.4901,213.098617" transform="translate(1179.6252, 563) rotate(180) translate(-1179.6252, -563)"></path>
            </g>
        </g>
    </g>
</svg>