<?xml version="1.0" encoding="UTF-8"?><svg id="Layer_2" xmlns="http://www.w3.org/2000/svg" viewBox="0 0 307.6 222.38"><g id="Blobs"><path d="m262.98,198.37c41.11-31.46,56.53-89.92,34.76-135.26C283.05,32.54,250.38-3.31,213.08.24c-23.11,2.2-41.36,19.02-55.15,36.53-12.49,15.87-23.62,40.04-46.38,42-17.39,1.5-33.73-4.58-49.59-10.82C39.2,59,5.19,57.55.36,89.58c-3.14,20.82,14.77,40.82,28.25,54.41,15.41,15.53,33.01,29.3,51.79,40.54,12.62,7.55,25.96,14.13,39.4,20.08,32.07,14.19,69.19,23.67,103.86,13.55,13.76-4.02,27.92-11.06,39.32-19.78Z"/></g></svg>