<?xml version="1.0" encoding="UTF-8"?>
<svg width="140px" height="60px" viewBox="0 0 140 60" version="1.1" xmlns="http://www.w3.org/2000/svg" xmlns:xlink="http://www.w3.org/1999/xlink">
    <title>Group 3</title>
    <defs>
        <polygon id="path-1" points="-2.57211822e-13 0 140 0 140 60 -2.57211822e-13 60"></polygon>
    </defs>
    <g id="Desktop-Designs" stroke="none" stroke-width="1" fill="none" fill-rule="evenodd">
        <g id="Page-Builder:-Global" transform="translate(-708.000000, -1522.000000)">
            <g id="Nav:-Hovers" transform="translate(0.000000, 1286.000000)">
                <g id="Secondary" transform="translate(528.000000, 185.000000)">
                    <g id="Group-3" transform="translate(250.000000, 81.000000) rotate(180.000000) translate(-250.000000, -81.000000) translate(180.000000, 51.000000)">
                        <mask id="mask-2" fill="white">
                            <use xlink:href="#path-1"></use>
                        </mask>
                        <g id="Clip-2"></g>
                        <path d="M85.785523,43.9347987 C91.7539786,46.4071124 97.2839387,50.6206684 101.792623,54.5054442 C116.113048,66.8460095 138.566193,57.1183175 139.953822,38.0623973 C140.82114,26.1431069 129.299349,16.6791661 119.841469,12.0726087 C107.300417,5.9643258 96.1744,8.89870889 83.111829,8.38291988 C81.8829938,8.33445106 80.6577858,8.28638615 79.4253233,8.23549389 C78.1928608,8.18662116 76.9539498,8.13492109 75.7069782,8.0767585 C67.5528967,7.69466265 59.6885929,5.57536353 51.7275622,3.88420565 C44.7205011,2.39540509 37.6417007,0.306398987 30.6064275,0.0305306248 C29.4340163,-0.0155147534 28.2624112,-0.0110717783 27.0920151,0.0547650343 C18.5909256,1.18126117 10.5303468,3.60470213 4.08188372,9.66330451 C-0.754463581,14.5101864 -2.36657935,24.6078571 5.29097055,27.4352049 C13.3515494,30.2625526 22.2181861,26.2234844 30.2050107,29.2471309 C31.8183355,29.8323919 33.2241005,30.4798545 34.5089567,31.1515516 C40.3544885,33.4938072 42.3696332,40.3594155 47.2055775,44.3984837 C55.1734597,51.0536565 65.2213743,42.86283 73.5906733,41.9071864 C77.7346168,41.4342115 81.8555878,42.3070542 85.785523,43.9347987" id="Fill-1" fill="#DF2F30" mask="url(#mask-2)"></path>
                    </g>
                </g>
            </g>
        </g>
    </g>
</svg>