<?xml version="1.0" encoding="UTF-8"?>
<svg width="638px" height="592px" viewBox="0 0 638 592" version="1.1" xmlns="http://www.w3.org/2000/svg" xmlns:xlink="http://www.w3.org/1999/xlink">
    <title>Group 3</title>
    <defs>
        <polygon id="path-1" points="0 0 764 0 764 722 0 722"></polygon>
    </defs>
    <g id="Desktop-Designs" stroke="none" stroke-width="1" fill="none" fill-rule="evenodd">
        <g id="Page-Builder:-Singles-&amp;-Posts-(R4)" transform="translate(0, -4422)">
            <g id="Spotted" transform="translate(0, 4182)">
                <g id="Group-3" transform="translate(-126, 240)">
                    <mask id="mask-2" fill="white">
                        <use xlink:href="#path-1"></use>
                    </mask>
                    <g id="Clip-2"></g>
                    <path d="M601.61925,721.911744 C618.329479,721.456763 635.151666,719.046084 652.097721,714.210432 C714.56992,696.382835 788.07349,626.496942 756.382415,555.83925 C730.146283,497.335005 659.903768,488.416443 614.165619,451.493975 C576.25972,420.895969 542.381904,372.901526 562.569957,323.082398 C579.427875,281.479115 621.957374,259.39948 653.50076,230.647597 C688.362372,198.879983 714.238812,157.383894 707.647621,108.453287 C690.630104,-17.9358914 516.417328,-22.0545331 431.856183,35.9590003 C378.17859,72.7861838 357.780915,137.047952 316.504385,184.685081 C274.03682,233.694296 215.049591,262.612925 156.78413,288.453888 C110.671996,308.906553 61.0367787,328.34921 28.454809,368.873404 C-5.56831383,411.184169 -9.51778786,468.161492 18.9670194,514.507525 C39.6243408,548.111735 68.3902324,576.441987 106.760635,588.314347 C145.902829,600.42968 187.038816,594.28864 227.183862,598.06426 C361.256357,610.679833 464.607279,725.630193 601.61925,721.911744" id="Fill-1" fill="#F2A53F" mask="url(#mask-2)"></path>
                </g>
            </g>
        </g>
    </g>
</svg>