<?xml version="1.0" encoding="UTF-8"?>
<svg width="790px" height="683px" viewBox="0 0 790 683" version="1.1" xmlns="http://www.w3.org/2000/svg" xmlns:xlink="http://www.w3.org/1999/xlink">
    <title>Fill 1</title>
    <g id="Desktop-Designs" stroke="none" stroke-width="1" fill="none" fill-rule="evenodd">
        <g id="Page-Builder:-Unique-Modules-(R4)" transform="translate(-534, 0)" fill="#F2A53F">
            <g id="Map" transform="translate(0, -32.7059)">
                <g id="Group-3" transform="translate(929, 357.7059) scale(-1, 1) rotate(25) translate(-929, -357.7059)translate(608, 112.7059)">
                    <path d="M7.87415016,372.859184 C-2.98699538,334.144416 -2.54726453,291.367115 8.79077221,253.929498 C33.2938964,173.023391 91.1422445,113.09638 172.560579,89.0224139 C222.473127,74.2640078 275.050898,77.1112887 325.611688,66.3349494 C369.254459,57.0338317 400.714827,28.4475438 440.416536,10.2950963 C522.006221,-27.0042839 640.02131,42.271299 641.966035,134.102299 C644.726224,265.007071 478.545123,268.333025 402.300335,327.321258 C376.614273,347.192391 370.455977,386.660243 350.364613,411.897881 C299.523056,475.749188 180.360124,505.934492 105.339564,481.612936 C53.924086,464.946026 21.7163818,422.201737 7.87415016,372.859184" id="Fill-1"></path>
                </g>
            </g>
        </g>
    </g>
</svg>