<?xml version="1.0" encoding="UTF-8"?>
<svg width="324px" height="300px" viewBox="0 0 324 300" version="1.1" xmlns="http://www.w3.org/2000/svg" xmlns:xlink="http://www.w3.org/1999/xlink">
    <title>blob-hover-11</title>
    <g id="Desktop-Designs" stroke="none" stroke-width="1" fill="none" fill-rule="evenodd">
        <g id="Page-Builder:-Singles-&amp;-Posts-(R4)" transform="translate(0, -6043)" fill="#F2EDEB" fill-rule="nonzero">
            <g id="Highlight" transform="translate(-92, 5204.9545)">
                <g id="blob-hover-11" transform="translate(0, 838.0455)">
                    <path d="M355.647432,267.607125 C411.242985,225.167521 432.096389,146.304863 402.655494,85.1411105 C382.789314,43.9021185 338.607686,-4.45960429 288.164628,0.329352912 C256.911569,3.29715738 232.230985,25.9873715 213.581929,49.6083971 C196.690943,71.0170593 181.639167,103.622438 150.859435,106.266482 C127.34188,108.289985 105.244305,100.088053 83.7958622,91.6702803 C53.0161301,79.5967122 7.02233898,77.6406592 0.49043627,120.849194 C-3.75597667,148.935417 20.4648054,175.915457 38.6946292,194.248395 C59.5345092,215.198396 83.3360595,233.774154 108.733396,248.936937 C125.800189,259.121902 143.840682,267.998336 162.016411,276.024898 C205.386623,295.167237 255.586256,307.955776 302.472605,294.303875 C321.08109,288.880887 340.230519,279.383913 355.647432,267.620615 L355.647432,267.607125 Z" id="Path"></path>
                </g>
            </g>
        </g>
    </g>
</svg>