<?xml version="1.0" encoding="UTF-8"?>
<svg width="439px" height="208px" viewBox="0 0 439 208" version="1.1" xmlns="http://www.w3.org/2000/svg" xmlns:xlink="http://www.w3.org/1999/xlink">
    <title>Path</title>
    <g id="Desktop-Designs" stroke="none" stroke-width="1" fill="none" fill-rule="evenodd">
        <g id="Page-Builder:-Singles-&amp;-Posts-(R4)" transform="translate(-120, -1374)" fill="#F64741" fill-rule="nonzero">
            <g id="Directory::-Eat-+-Drink" transform="translate(0, 928)">
                <g id="blob-hover-4" transform="translate(120, 446)">
                    <path d="M165.009739,186.872948 C146.750674,191.056253 131.950074,204.651994 112.846816,207.01529 C63.0803111,213.168008 -1.79996185,190.743864 0.0381990825,132.530731 C1.82189599,75.6214857 70.800587,-1.93264097 132.072618,0.0367720582 C167.705708,1.1776734 197.946859,28.3691553 224.743161,43.4317694 C255.038776,60.4773786 287.172553,67.689505 319.428873,57.0139282 C346.987671,47.8867174 392.192814,37.8359199 420.582188,55.9681019 C450.864188,75.309096 442.994136,146.710505 402.935844,157.032945 C382.593529,162.275659 361.053006,143.844669 341.268948,145.026317 C323.717915,146.072143 305.59501,161.175504 290.848875,171.565855 C276.98778,181.331427 266.435374,196.733596 248.475861,198.879577 C214.068212,202.994971 187.326374,181.766057 165.009739,186.88653 L165.009739,186.872948 Z" id="Path"></path>
                </g>
            </g>
        </g>
    </g>
</svg>