<?xml version="1.0" encoding="UTF-8"?><svg id="Layer_2" xmlns="http://www.w3.org/2000/svg" viewBox="0 0 322.42 153.14"><g id="Blobs"><path d="m121.19,137.59c-13.41,3.08-24.28,13.09-38.31,14.83C46.33,156.95-1.32,140.44.03,97.58,1.34,55.68,52-1.42,97,.03c26.17.84,48.38,20.86,68.06,31.95,22.25,12.55,45.85,17.86,69.54,10,20.24-6.72,53.44-14.12,74.29-.77,22.24,14.24,16.46,66.81-12.96,74.41-14.94,3.86-30.76-9.71-45.29-8.84-12.89.77-26.2,11.89-37.03,19.54-10.18,7.19-17.93,18.53-31.12,20.11-25.27,3.03-44.91-12.6-61.3-8.83Z"/></g></svg>