<?xml version="1.0" encoding="UTF-8"?>
<svg width="858px" height="1394px" viewBox="0 0 858 1394" version="1.1" xmlns="http://www.w3.org/2000/svg" xmlns:xlink="http://www.w3.org/1999/xlink">
    <title>Fill 1</title>
    <g id="Desktop-Designs" stroke="none" stroke-width="1" fill="none" fill-rule="evenodd">
        <g id="Home-Page-R1" transform="translate(0.000000, -4552.000000)" fill="#C4DBCB">
            <g id="Insta-Feed" transform="translate(-618.000000, 4552.000000)">
                <path d="M1161.76732,1393.8296 C1194.0359,1392.95115 1226.52068,1388.29673 1259.24465,1378.96031 C1379.88268,1344.53971 1521.82303,1209.60767 1460.62542,1073.18548 C1409.96169,960.228528 1274.31865,943.009032 1185.99521,871.721055 C1112.79636,812.644019 1047.37601,719.978847 1086.3605,623.790669 C1118.91428,543.465217 1201.04161,500.835006 1261.95402,445.322369 C1329.27414,383.987113 1379.24329,303.868626 1366.51525,209.395959 C1333.65328,-34.6296851 997.236667,-42.581744 833.943396,69.4277651 C730.288348,140.531773 690.899061,264.605048 611.191301,356.580336 C529.18357,451.204777 415.275255,507.03936 302.760723,556.931745 C213.715084,596.420686 117.866134,633.959554 54.948154,712.201559 C-10.7527893,793.892981 -18.3794899,903.901827 36.6265929,993.384336 C76.5172727,1058.26559 132.066148,1112.96417 206.161982,1135.8867 C281.748197,1159.27836 361.184561,1147.42156 438.70735,1154.71133 C697.610374,1179.06882 897.187971,1401.00899 1161.76732,1393.8296" id="Fill-1"></path>
            </g>
        </g>
    </g>
</svg>