<svg width="474px" height="695px" viewBox="0 0 474 695" version="1.1" xmlns="http://www.w3.org/2000/svg" xmlns:xlink="http://www.w3.org/1999/xlink">
    <title>blob-hover-8</title>
    <g id="Desktop-Designs" stroke="none" stroke-width="1" fill="none" fill-rule="evenodd">
        <g id="blob-hover-8" transform="translate(0.000000, -5244.000000)" filter="url(#filter-1)">
            <g transform="translate(155.500000, 5583.000000) rotate(45.000000) translate(-155.500000, -5583.000000) translate(-253.000000, 5353.000000)">
                <path d="M6.86425601,203.89147 C18.5003396,157.503555 44.1732147,113.59457 77.9301058,81.6384505 C150.882226,12.5474545 245.808171,-15.1625755 343.845238,8.05592614 C403.960921,22.2913711 456.433534,56.284632 514.858922,75.0116054 C565.298282,91.1860162 614.561786,80.2394498 666.152506,84.9273291 C772.175601,94.5976142 852.868779,235.798502 800.714627,331.765037 C726.366177,468.548028 553.24575,373.857775 439.94704,389.762203 C401.780686,395.112767 372.163791,432.223099 336.594121,446.434 C246.592076,482.341683 106.052683,443.145122 43.1198429,373.735055 C3.27925666e-13,326.14449 -7.98093701,262.993111 6.86425601,203.89147 Z" id="Path" fill="#C4DBCB" fill-rule="nonzero"></path>
            </g>
        </g>
    </g>
</svg>