<?xml version="1.0" encoding="UTF-8"?>
<svg width="675px" height="581px" viewBox="0 0 675 581" version="1.1" xmlns="http://www.w3.org/2000/svg" xmlns:xlink="http://www.w3.org/1999/xlink">
    <title>Fill 1</title>
    <g id="Desktop-Designs" stroke="none" stroke-width="1" fill="none" fill-rule="evenodd">
        <g id="Page-Builder:-Unique-Modules-(R4)" transform="translate(0, -6619)" fill="#C4DBCB">
            <g id="Fill-1" transform="translate(0, 6579)">
                <path d="M316.930719,83.1468371 C363.540807,64.3357401 407.026921,40.3852717 458.849454,40.1858238 C500.863408,40.0334992 550.617432,55.0050368 583.713588,81.4453559 C601.419433,95.5911013 617.860218,118.663386 623.963445,140.762683 C637.754342,190.67945 617.034312,241.027826 621.014134,291.39117 C626.401243,359.627551 696.326355,417.041314 668.248019,492.891949 C655.814504,526.472501 626.753064,551.380988 593.801628,563.862675 C556.598394,577.953534 520.655229,566.896401 483.57925,576.1323 C448.669092,584.831809 434.017356,613.485052 409.272589,637.243417 C363.675547,681.017888 248.562603,738.386744 188.767948,688.445028 C162.358892,666.385649 163.965792,631.642501 158.668511,600.938499 C153.575835,571.439506 140.768041,547.149739 121.008658,524.751061 C84.2545574,483.092215 30.6055477,467.042907 7.19321072,412.385942 C-52.1148824,273.924792 83.461088,113.526509 218.11883,96.8435112 C254.246638,92.3702622 282.978713,96.8509957 316.930719,83.1468371 Z" transform="translate(333.8728, 374.0006) rotate(180) translate(-333.8728, -374.0006)"></path>
            </g>
        </g>
    </g>
</svg>