<?xml version="1.0" encoding="UTF-8"?>
<svg width="35px" height="28px" viewBox="0 0 35 28" version="1.1" xmlns="http://www.w3.org/2000/svg" xmlns:xlink="http://www.w3.org/1999/xlink">
    <title>Twitter</title>
    <g id="Desktop-Designs" stroke="none" stroke-width="1" fill="none" fill-rule="evenodd">
        <g id="Home-Page-R1" transform="translate(-923.000000, -6304.000000)" fill="#000">
            <g id="Footer" transform="translate(0.000000, 6059.000000)">
                <g id="Group" transform="translate(834.000000, 243.000000)">
                    <path d="M122.895514,7.75074815 C123.209636,7.48984207 123.252504,7.02346322 122.991598,6.71008028 C122.89034,6.58812701 122.753604,6.50239017 122.599869,6.46469553 L121.432074,6.18383346 C121.214037,6.12913927 121.033694,5.97614335 120.944261,5.76993147 C120.848177,5.56889336 120.848177,5.33533438 120.944261,5.13429627 L121.609461,3.81867922 C121.789065,3.45208031 121.638286,3.009353 121.271687,2.8297491 C121.105387,2.74770782 120.914697,2.73144738 120.73731,2.78392424 L117.780868,3.61172822 C117.559873,3.6723353 117.323358,3.62281488 117.145232,3.4786883 C113.879841,1.02927544 109.247095,1.69151862 106.797683,4.9569097 C105.838317,6.23631032 105.319461,7.79213835 105.319461,9.3915739 L105.319461,9.92373361 C105.320939,10.1114677 105.180508,10.2703765 104.994252,10.293289 C100.84045,10.781102 96.8640347,8.66724541 92.5771926,3.72998594 C92.392415,3.51194828 92.098988,3.42029855 91.8232997,3.49347051 C91.5601763,3.60433712 91.3864853,3.8585912 91.3798333,4.14388793 C90.7804145,6.57556213 91.0206255,9.13805893 92.0598151,11.4167372 C92.125596,11.5364732 92.125596,11.6813389 92.0598151,11.8010748 C91.978513,11.9215498 91.832169,11.9799396 91.6902598,11.9488969 L90.0198696,11.6236882 C89.7803977,11.5911673 89.5394477,11.6732086 89.3694522,11.8454214 C89.2061087,12.0198516 89.134415,12.2608016 89.1772834,12.4958388 C89.4359722,14.793734 90.7249812,16.84994 92.6806681,18.0835157 C92.7989258,18.1552095 92.866924,18.2860321 92.8580547,18.4235067 C92.8565765,18.5668941 92.7693614,18.6947603 92.6363215,18.7487154 L91.8380819,19.0591419 C91.6488696,19.1419223 91.5003083,19.2956573 91.4241799,19.4878261 C91.3436169,19.6770384 91.3436169,19.8899023 91.4241799,20.0791146 C92.3037217,22.0037589 94.0716745,23.373331 96.1544884,23.7451037 C96.3037888,23.7894503 96.4131772,23.9165774 96.4353505,24.0703124 C96.4501327,24.2321777 96.3614394,24.3866518 96.2136173,24.45465 C94.2113664,25.2743237 92.0649889,25.6867475 89.9016119,25.6667915 C89.4936228,25.5854893 89.0959812,25.850091 89.0146791,26.2580801 C88.9333769,26.6660692 89.1979785,27.0637107 89.6059676,27.1450129 C93.3695193,28.9373564 97.4708446,29.9092869 101.63869,29.9979802 C105.30394,30.0519353 108.903409,29.0238323 111.98624,27.0415374 C117.140059,23.6076291 120.227324,17.8166968 120.205151,11.6236882 L120.205151,10.3376356 C120.205151,10.1195979 120.302713,9.91338606 120.47123,9.77591147 L122.895514,7.75074815 Z" id="Twitter"></path>
                </g>
            </g>
        </g>
    </g>
</svg>